<svg xmlns="http://www.w3.org/2000/svg" width="136" height="74" fill="none" class="w-auto h-[74px] text-blue-500"><g clip-path="url(#spicy-analytics-logo_svg__a)"><g clip-path="url(#spicy-analytics-logo_svg__b)"><path fill="#EC2027" d="M30.922 10.921c-1.282 2.138-4.239 4.652-5.713 3.874-1.088-.574-2.557-1.57-1.028-5.167 1.04-2.435 1.455-4.091-5.18 2.27-4.945 4.738-9.757 9.898-13.748 15.435-5.9 8.4-6.761 19.889-2.93 29.266C5.273 63.349 10.599 69.203 17.58 72c4.699 1.781 10.005 2.197 15.004 1.926 8.71-.389 16.631-5.55 20.836-13.013 5.667-9.12 5.48-21.063 2.023-31.04-.848-2.785-2.256-5.405-3.685-7.933-8.376-14.847-3.824-1.346-8.035-1.478-1.762-.053-1.602-6.308-1.91-8.578-.446-2.62-1.007-4.97-2.162-7.279-.747-1.498-2.93-4.942-3.757-4.573.213 3.187-.608 4.21-1.462 5.833"></path><path fill="#fff" d="M44.544 54.164 37.516 41.85l-.027-.04a4.23 4.23 0 0 1-.72-2.368V29.365h-1.436v10.077a5.63 5.63 0 0 0 .941 3.12l7.021 12.308a2.67 2.67 0 0 1 0 2.712 2.72 2.72 0 0 1-2.376 1.36H19.53a2.72 2.72 0 0 1-2.376-1.36 2.68 2.68 0 0 1 0-2.719l7.014-12.294c.621-.93.948-2.019.948-3.134V29.358H23.68v10.077c0 .845-.247 1.663-.72 2.369L15.91 54.157a4.05 4.05 0 0 0 0 4.131 4.14 4.14 0 0 0 3.618 2.066h21.39a4.14 4.14 0 0 0 3.618-2.066 4.05 4.05 0 0 0 0-4.13zM38.216 25.135H22.238a1.32 1.32 0 0 0-1.328 1.313v.324a1.32 1.32 0 0 0 1.328 1.313h15.978a1.32 1.32 0 0 0 1.328-1.313v-.324a1.32 1.32 0 0 0-1.328-1.313"></path><path fill="#fff" d="M28.926 39.58c-1.201 0-2.176.964-2.176 2.151 0 1.188.975 2.152 2.176 2.152s2.176-.964 2.176-2.152c0-1.187-.975-2.15-2.176-2.15M31.73 36.452c-.795 0-1.442.64-1.442 1.426s.647 1.425 1.441 1.425 1.442-.64 1.442-1.425c0-.786-.648-1.426-1.442-1.426M29.934 34.268a.83.83 0 0 0-.835.825.83.83 0 0 0 .835.825.83.83 0 0 0 .834-.825.83.83 0 0 0-.834-.825M41.654 55.365l-5.273-9.588c-.941-1.868-3.177-2.686-4.238-1.874l-2.19 2.019c-.82.686-1.621.158-1.962-.093-1.027-.745-2.803-.996-3.65.396-1.522 2.514-4.525 7.523-4.525 7.523l-.614 1.135s-.514.831-.521.838c-.174.304-.32.937-.12 1.228.347.514.727.481 1.081.481l20.583.013c.354 0 1.315-.02 1.662-.501.447-.614-.053-1.307-.227-1.584zm-17.72-1.017a.83.83 0 0 1-.835-.824.83.83 0 0 1 .834-.825c.461 0 .835.37.835.825a.83.83 0 0 1-.835.825m4.264 1.327a.83.83 0 0 1-.834-.825.83.83 0 0 1 .834-.825c.46 0 .835.37.835.825a.83.83 0 0 1-.835.825m-.34-5.055a1.62 1.62 0 0 1-1.628-1.61c0-.89.734-1.61 1.628-1.61s1.628.726 1.628 1.61-.734 1.61-1.628 1.61m5.052 2.917c-.66 0-1.201-.535-1.201-1.188s.54-1.188 1.201-1.188 1.202.535 1.202 1.188-.54 1.188-1.202 1.188m.154-5.022a1.62 1.62 0 0 1-1.629-1.61c0-.89.735-1.61 1.629-1.61s1.628.726 1.628 1.61-.734 1.61-1.628 1.61m3.65 6.797a.83.83 0 0 1-.834-.825.83.83 0 0 1 .835-.825c.46 0 .834.37.834.825a.83.83 0 0 1-.834.825"></path><path fill="#EC2027" d="M76.86 38.597c-.68-.627-1.782-1.307-3.317-2.052-2.91-1.406-4.372-2.759-4.372-4.059 0-.785.26-1.418.774-1.913.514-.489 1.249-.733 2.183-.733q2.382.002 4.525 1.518l1.235-3.471q-1.864-1.473-5.84-1.472-3.053.002-5.006 1.736-1.95 1.734-1.949 4.368.002 1.407.494 2.567c.327.772.801 1.446 1.408 2.006q.913.843 3.558 2.152c1.755.87 2.923 1.656 3.484 2.362.56.7.847 1.439.847 2.21q0 2.475-3.584 2.475c-1.555 0-3.137-.554-4.745-1.67l-1.502 3.61q2.581 1.643 5.793 1.643c2.463 0 4.432-.593 5.894-1.781s2.202-2.7 2.202-4.534c0-1.023-.18-1.946-.534-2.778a6.4 6.4 0 0 0-1.548-2.184M93.332 28.33q-2.513-1.675-7.949-1.677c-.46 0-2.049.06-4.759.172V49.86h4.072v-8.48q1.16.111 1.848.113c6.2 0 9.304-2.646 9.304-7.932 0-2.369-.84-4.118-2.516-5.233m-2.937 8.59c-.854.628-2.216.938-4.071.938-.394 0-.941-.04-1.629-.112v-7.378q.593-.08 1.235-.08 5.747-.001 5.747 3.59 0 2.11-1.282 3.043M101.668 26.811h-4.071v23.05h4.071zM131.702 26.848l-5.46 10.574-5.84-9.251a.5.5 0 0 0-.167-.159c-1.575-1.062-3.677-1.597-6.313-1.597q-4.604 0-7.556 3.386-2.95 3.384-2.949 8.413 0 5.404 2.663 8.533 2.662 3.127 7.468 3.127c3.204 0 5.64-.87 7.295-2.613l-1.896-3.253q-1.83 2.288-5.072 2.29-2.832 0-4.532-2.138c-1.134-1.425-1.695-3.352-1.695-5.774s.614-4.428 1.829-6.012Q111.31 30 114.175 30c1.469 0 2.643.244 3.524.719l6.521 10.268v8.941h4.071v-8.941L136 26.855h-4.305z"></path><path fill="#fff" d="m72.462 62.617-.768-2.316h-4.125l-.82 2.316h-1.696l4.505-11.12h.4l4.179 11.12h-1.682zm-2.77-8.242-1.722 4.83h3.297zM80.15 62.617v-4.665q.001-1.28-.387-1.795-.389-.516-1.308-.515c-.327 0-.674.099-1.028.29-.36.192-.634.436-.827.72v5.958h-1.442v-8.017h.988l.454 1.036c.473-.792 1.248-1.182 2.322-1.182q2.663 0 2.663 3.207v4.963h-1.441zM88.22 61.561q-.862 1.07-2.644 1.07c-.634 0-1.188-.232-1.655-.687q-.7-.684-.7-1.703c0-.811.36-1.504 1.08-2.065q1.08-.843 2.75-.845c.3 0 .648.066 1.028.198q-.001-1.948-1.755-1.947c-.901 0-1.588.238-2.076.72l-.607-1.188c.274-.218.647-.41 1.134-.567a4.4 4.4 0 0 1 1.382-.238q1.763 0 2.563.792c.534.528.8 1.372.8 2.52V60.5c0 .706.215 1.174.635 1.405v.713c-.587 0-1.021-.086-1.315-.244-.287-.165-.5-.436-.627-.819zm-.14-3.016q-.684-.15-.955-.151-1.092 0-1.782.554-.689.553-.688 1.313c0 .832.501 1.254 1.495 1.254q1.09-.002 1.93-1.023v-1.9469999999999998M91.897 60.142v-9.04h1.442v8.796q.001.643.373 1.016.37.369.981.37v1.273q-2.794.002-2.796-2.421zM99.459 63.778q-.282.76-1.175 1.274c-.594.343-1.268.508-2.002.508v-1.274q.9 0 1.541-.415c.428-.278.641-.614.641-1.017q-.002-.654-.233-1.3c-.154-.428-.36-.956-.608-1.583l-2.196-5.576h1.469l2.382 6.203 2.143-6.203h1.468l-3.437 9.383zM104.518 55.57h-.941v-1.123h.941v-1.676l1.441-.547v2.224h2.23v1.121h-2.23v3.986q-.001 1.011.347 1.439.35.426 1.108.428.55 0 1.142-.277l.213 1.247a8 8 0 0 1-1.962.225 2.14 2.14 0 0 1-1.622-.706c-.44-.469-.661-1.07-.661-1.788v-4.554zM128.285 55.094l-.715 1.003c-.146-.145-.407-.284-.774-.409a3.3 3.3 0 0 0-1.094-.198q-1.172 0-1.862.812c-.461.54-.688 1.287-.688 2.23q-.001 1.415.708 2.145.702.74 1.955.739c.648 0 1.295-.244 1.956-.74l.567 1.202q-1.16.74-2.87.739c-1.141 0-2.022-.37-2.743-1.102q-1.081-1.1-1.081-2.983c0-1.254.374-2.303 1.128-3.075q1.122-1.16 3.077-1.161.63-.002 1.361.264.731.265 1.081.54zM129.566 61.997l.507-1.347c.801.522 1.449.78 1.936.78.887 0 1.335-.37 1.335-1.11q.001-.791-1.289-1.365c-.66-.297-1.107-.528-1.334-.68a3 3 0 0 1-.601-.528 2.1 2.1 0 0 1-.38-.627 2 2 0 0 1-.127-.713q-.002-.99.727-1.544.73-.555 1.902-.554.883 0 2.236.554l-.407 1.32q-.85-.673-1.722-.673c-.34 0-.634.08-.868.238q-.351.238-.353.607-.002.771.887 1.168l1.028.461c.634.284 1.088.608 1.382.97.293.364.434.819.434 1.373 0 .72-.254 1.28-.768 1.69-.507.408-1.215.606-2.122.606a4.9 4.9 0 0 1-2.41-.626z"></path><path fill="#EC2027" d="M112.06 57.476h-1.455v5.121h1.455zM114.703 55.523h-1.455v7.067h1.455zM117.346 53.346h-1.455v9.251h1.455zM120.002 56.863h-1.455v5.734h1.455z"></path></g></g><defs><clipPath id="spicy-analytics-logo_svg__a"><path fill="#fff" d="M0 0h136v74H0z"></path></clipPath><clipPath id="spicy-analytics-logo_svg__b"><path fill="#fff" d="M0 0h136v74H0z"></path></clipPath></defs></svg>